<?xml version="1.0" encoding="UTF-8"?>
<svg version="1.1" xmlns="http://www.w3.org/2000/svg" width="149" height="43">
<path d="M0 0 C1.06734375 0.06960937 2.1346875 0.13921875 3.234375 0.2109375 C4.31203125 0.26507812 5.3896875 0.31921875 6.5 0.375 C7.31984375 0.44460937 8.1396875 0.51421875 8.984375 0.5859375 C9.84396736 5.76292394 10.69830911 10.94073963 11.54785156 16.11938477 C11.83743372 17.8800378 12.12843528 19.640458 12.42089844 21.40063477 C12.84165148 23.93445541 13.25724973 26.46907659 13.671875 29.00390625 C13.80311768 29.78742966 13.93436035 30.57095306 14.06958008 31.3782196 C14.68272892 35.15737648 15.14498104 38.7414305 14.984375 42.5859375 C12.014375 42.5859375 9.044375 42.5859375 5.984375 42.5859375 C5.654375 38.9559375 5.324375 35.3259375 4.984375 31.5859375 C-1.285625 31.5859375 -7.555625 31.5859375 -14.015625 31.5859375 C-15.005625 34.0609375 -15.005625 34.0609375 -16.015625 36.5859375 C-17.515625 39.8984375 -17.515625 39.8984375 -20.015625 42.5859375 C-23.41695941 43.10469448 -26.6033875 42.87609118 -30.015625 42.5859375 C-25.88368222 34.65651155 -20.94136673 27.30108849 -15.953125 19.8984375 C-15.14225116 18.6896724 -14.33170225 17.48068926 -13.52148438 16.27148438 C-12.03055977 14.0472246 -10.53743743 11.8245051 -9.04272461 9.6027832 C-6.95231897 6.58323275 -6.95231897 6.58323275 -5.14672852 3.22338867 C-3.015625 0.5859375 -3.015625 0.5859375 0 0 Z M-0.015625 9.5859375 C-1.24278896 11.08544399 -1.24278896 11.08544399 -2.3984375 13.05078125 C-2.84316406 13.76814453 -3.28789062 14.48550781 -3.74609375 15.22460938 C-4.20628906 15.98322266 -4.66648437 16.74183594 -5.140625 17.5234375 C-5.60855469 18.27818359 -6.07648437 19.03292969 -6.55859375 19.81054688 C-8.88589383 22.99297558 -8.88589383 22.99297558 -10.015625 26.5859375 C-5.395625 26.5859375 -0.775625 26.5859375 3.984375 26.5859375 C3.324375 20.9759375 2.664375 15.3659375 1.984375 9.5859375 C1.324375 9.5859375 0.664375 9.5859375 -0.015625 9.5859375 Z " fill="#FDFDFD" transform="translate(34.015625,-0.5859375)"/>
<path d="M0 0 C1.32 0 2.64 0 4 0 C6.06297567 8.2519027 7.02716362 16.5653016 8 25 C6.68 25 5.36 25 4 25 C4 23.02 4 21.04 4 19 C3.01 19 2.02 19 1 19 C0.67 20.98 0.34 22.96 0 25 C-0.99 25 -1.98 25 -3 25 C-2.4237919 16.58432901 -1.38227951 8.32051741 0 0 Z M2 11 C3 15 3 15 3 15 Z " fill="#EBEBEB" transform="translate(59,9)"/>
<path d="M0 0 C0.99 0 1.98 0 3 0 C3 8.25 3 16.5 3 25 C0.69 25.33 -1.62 25.66 -4 26 C-6.55948999 23.44051001 -6.26068731 21.72792805 -6.2734375 18.234375 C-6.26570312 17.49703125 -6.25796875 16.7596875 -6.25 16 C-6.25773438 15.26265625 -6.26546875 14.5253125 -6.2734375 13.765625 C-6.2533196 8.2533196 -6.2533196 8.2533196 -4 6 C-3.01 6 -2.02 6 -1 6 C-0.67 4.02 -0.34 2.04 0 0 Z M-3 11 C-3 13.97 -3 16.94 -3 20 C-2.01 20.495 -2.01 20.495 -1 21 C0.4783226 18.04335481 0.06032783 15.25770263 0 12 C-0.99 11.67 -1.98 11.34 -3 11 Z " fill="#EAEAEA" transform="translate(143,9)"/>
<path d="M0 0 C2.5625 0.4375 2.5625 0.4375 4.375 2.9375 C4.766875 3.7625 5.15875 4.5875 5.5625 5.4375 C4.2425 5.7675 2.9225 6.0975 1.5625 6.4375 C1.5625 5.7775 1.5625 5.1175 1.5625 4.4375 C0.9025 5.0975 0.2425 5.7575 -0.4375 6.4375 C0.366875 6.788125 1.17125 7.13875 2 7.5 C4.5625 9.4375 4.5625 9.4375 5.625 12.875 C5.5625 16.4375 5.5625 16.4375 3.9375 18.9375 C1.5625 20.4375 1.5625 20.4375 -1.1875 20.1875 C-1.93 19.94 -2.6725 19.6925 -3.4375 19.4375 C-3.7675 17.4575 -4.0975 15.4775 -4.4375 13.4375 C-3.4475 13.4375 -2.4575 13.4375 -1.4375 13.4375 C-1.4375 14.0975 -1.4375 14.7575 -1.4375 15.4375 C-0.4475 15.4375 0.5425 15.4375 1.5625 15.4375 C1.5625 14.4475 1.5625 13.4575 1.5625 12.4375 C0.758125 12.31375 -0.04625 12.19 -0.875 12.0625 C-1.720625 11.85625 -2.56625 11.65 -3.4375 11.4375 C-4.94412097 8.42425805 -4.61520373 5.75463623 -4.4375 2.4375 C-2.4375 0.4375 -2.4375 0.4375 0 0 Z " fill="#EAEAEA" transform="translate(72.4375,14.5625)"/>
<path d="M0 0 C2.5 -0.3125 2.5 -0.3125 5 0 C7.39763185 2.39763185 7.34280586 3.33273498 7.625 6.625 C7.69976562 7.44226563 7.77453125 8.25953125 7.8515625 9.1015625 C7.92503906 10.04128906 7.92503906 10.04128906 8 11 C5.69 11 3.38 11 1 11 C1.33 11.99 1.66 12.98 2 14 C3.65 14 5.3 14 7 14 C6.67 15.65 6.34 17.3 6 19 C3.6875 19.6875 3.6875 19.6875 1 20 C-0.6484375 18.95703125 -0.6484375 18.95703125 -2 17 C-2.36328125 13.75 -2.36328125 13.75 -2.3125 10 C-2.30863281 8.7625 -2.30476563 7.525 -2.30078125 6.25 C-2 3 -2 3 0 0 Z M2 4 C1.67 5.32 1.34 6.64 1 8 C1.99 8 2.98 8 4 8 C3.67 6.68 3.34 5.36 3 4 C2.67 4 2.34 4 2 4 Z " fill="#EBEBEB" transform="translate(93,15)"/>
<path d="M0 0 C2.5 -0.375 2.5 -0.375 5 0 C7.42976312 3.64464468 7.36061651 5.65834431 7.4375 10 C7.47746094 11.2375 7.51742187 12.475 7.55859375 13.75 C7 17 7 17 4.47265625 18.9375 C3.24869141 19.4634375 3.24869141 19.4634375 2 20 C0.0234375 18.9375 0.0234375 18.9375 -2 17 C-2.4609375 13.75 -2.4609375 13.75 -2.375 10 C-2.36210938 8.7625 -2.34921875 7.525 -2.3359375 6.25 C-2 3 -2 3 0 0 Z M1 5 C1 7.97 1 10.94 1 14 C1.99 14 2.98 14 4 14 C4 11.03 4 8.06 4 5 C3.01 5 2.02 5 1 5 Z " fill="#EBEBEB" transform="translate(116,15)"/>
<path d="M0 0 C0.99 0 1.98 0 3 0 C3 1.65 3 3.3 3 5 C4.32 5 5.64 5 7 5 C7 6.65 7 8.3 7 10 C5.68 10 4.36 10 3 10 C3.33 12.97 3.66 15.94 4 19 C4.99 19.33 5.98 19.66 7 20 C7 21.32 7 22.64 7 24 C5.00045254 24.04254356 2.99958364 24.04080783 1 24 C0 23 0 23 -0.09765625 20.05859375 C-0.08605469 18.86363281 -0.07445313 17.66867188 -0.0625 16.4375 C-0.05347656 15.23996094 -0.04445313 14.04242188 -0.03515625 12.80859375 C-0.02355469 11.88175781 -0.01195313 10.95492188 0 10 C-0.99 10 -1.98 10 -3 10 C-3 8.35 -3 6.7 -3 5 C-2.01 5 -1.02 5 0 5 C0 3.35 0 1.7 0 0 Z " fill="#EAEAEA" transform="translate(82,10)"/>
<path d="M0 0 C1.98 0 3.96 0 6 0 C6 4.95 6 9.9 6 15 C6.99 15 7.98 15 9 15 C9 16.32 9 17.64 9 19 C5.7 19 2.4 19 -1 19 C-1 17.68 -1 16.36 -1 15 C0.32 15 1.64 15 3 15 C3 11.7 3 8.4 3 5 C2.01 5 1.02 5 0 5 C0 3.35 0 1.7 0 0 Z " fill="#EBEBEB" transform="translate(126,15)"/>
<path d="M0 0 C2.31 0 4.62 0 7 0 C9 2 9 2 9.125 5.625 C9.08375 6.73875 9.0425 7.8525 9 9 C8.01 9 7.02 9 6 9 C5.67 7.68 5.34 6.36 5 5 C3.12175109 6.87824891 3.60897603 10.03935276 3.4375 12.5625 C3.31181641 14.35880859 3.31181641 14.35880859 3.18359375 16.19140625 C3.12300781 17.11824219 3.06242187 18.04507813 3 19 C2.01 19 1.02 19 0 19 C0 12.73 0 6.46 0 0 Z " fill="#EBEBEB" transform="translate(103,15)"/>
<path d="M0 0 C1.67542976 0.28604898 3.34385343 0.61781233 5 1 C5 1.99 5 2.98 5 4 C3.35 4.33 1.7 4.66 0 5 C-0.5625 3.0625 -0.5625 3.0625 -1 1 C-0.67 0.67 -0.34 0.34 0 0 Z " fill="#FFFFFF" transform="translate(50,33)"/>
<path d="M0 0 C1.65 0.33 3.3 0.66 5 1 C4.34 2.32 3.68 3.64 3 5 C1.68 4.67 0.36 4.34 -1 4 C-0.67 2.68 -0.34 1.36 0 0 Z " fill="#FFFFFF" transform="translate(6,6)"/>
<path d="M0 0 C1.65 0 3.3 0 5 0 C5 1.32 5 2.64 5 4 C3.35 4 1.7 4 0 4 C0 2.68 0 1.36 0 0 Z " fill="#FFFFFF" transform="translate(1,27)"/>
<path d="M0 0 C0.99 0.33 1.98 0.66 3 1 C3 2.65 3 4.3 3 6 C1.68 5.67 0.36 5.34 -1 5 C-0.67 3.35 -0.34 1.7 0 0 Z " fill="#EBEBEB" transform="translate(129,7)"/>
<path d="M0 0 C0.99 0.33 1.98 0.66 3 1 C2.67 2.32 2.34 3.64 2 5 C0.68 4.67 -0.64 4.34 -2 4 C-2 3.01 -2 2.02 -2 1 C-1.34 0.67 -0.68 0.34 0 0 Z " fill="#FFFFFF" transform="translate(49,4)"/>
</svg>
