<?xml version="1.0" encoding="UTF-8"?>
<svg version="1.1" xmlns="http://www.w3.org/2000/svg" width="512" height="512">
<path d="M0 0 C0.92212784 0.00359528 1.84425568 0.00719055 2.79432678 0.01089478 C4.24295105 0.01067574 4.24295105 0.01067574 5.72084045 0.01045227 C8.92952175 0.01115182 12.1381458 0.0189462 15.34681702 0.02676392 C17.56499195 0.02862794 19.78316729 0.03005192 22.00134277 0.03105164 C27.85231148 0.03487801 33.70325554 0.04470931 39.55421448 0.05575562 C45.51958381 0.06596717 51.4849571 0.07054871 57.45033264 0.07559204 C69.16453621 0.08633147 80.87872144 0.10340932 92.59291077 0.12442017 C94.78621233 18.1627236 96.97937034 36.20104449 99.17244262 54.2393758 C99.44018324 56.44157606 99.70792567 58.64377611 99.97566843 60.84597611 C104.37097339 96.99770408 108.76525223 133.14955644 113.15673704 169.30174868 C113.45753838 171.7780425 113.75834342 174.25433586 114.05914962 176.73062909 C115.76613249 190.78284442 117.47310986 204.83506042 119.17990537 218.88729851 C123.58831318 255.18220783 127.99897353 291.47683611 132.42232227 327.76992798 C134.63371407 345.91433135 136.84207396 364.05910148 139.04743481 382.20423889 C140.40237535 393.35105439 141.76053489 404.49746798 143.12293291 415.6433745 C144.03702515 423.12397445 144.9472973 430.60503263 145.85439539 438.0864839 C146.36644476 442.30870727 146.88018663 446.53070509 147.39877701 450.75213051 C147.86544036 454.55098913 148.32717538 458.35041263 148.78493488 462.15035415 C149.02713019 464.15008477 149.27462279 466.14917166 149.52233982 468.14822578 C149.66520389 469.34241568 149.80806795 470.53660557 149.95526123 471.76698303 C150.07941249 472.78575248 150.20356375 473.80452192 150.33147717 474.85416317 C150.65748433 478.93216688 150.59291077 483.03340624 150.59291077 487.12442017 C126.83291077 487.12442017 103.07291077 487.12442017 78.59291077 487.12442017 C75.34411626 456.62680796 75.34411626 456.62680796 73.7460041 441.56674957 C72.88149498 433.42041709 72.01604861 425.27418774 71.14710999 417.12832642 C70.45916224 410.67913495 69.77342867 404.22971254 69.09033918 397.78000462 C68.72866192 394.3657947 68.36588627 390.95170965 68.00045776 387.53789902 C67.59229655 383.7244898 67.18907937 379.91056658 66.78627014 376.09658813 C66.66471054 374.96801895 66.54315094 373.83944977 66.41790771 372.67668152 C66.25383171 371.11189812 66.25383171 371.11189812 66.08644104 369.51550293 C65.99057457 368.61398939 65.8947081 367.71247585 65.79593658 366.78364372 C65.57614484 363.90482073 65.59291077 361.01162127 65.59291077 358.12442017 C6.85291077 358.12442017 -51.88708923 358.12442017 -112.40708923 358.12442017 C-113.06708923 360.10442017 -113.72708923 362.08442017 -114.40708923 364.12442017 C-115.06407229 365.59171601 -115.75402438 367.04478115 -116.47911072 368.47964478 C-116.88391159 369.28586777 -117.28871246 370.09209076 -117.70578003 370.92274475 C-118.142173 371.78207108 -118.57856598 372.6413974 -119.02818298 373.52676392 C-119.48757767 374.44035172 -119.94697235 375.35393951 -120.42028809 376.29521179 C-121.89124688 379.21938491 -123.36748903 382.14084511 -124.84458923 385.06192017 C-130.59397696 396.44883983 -136.3102915 407.84316293 -141.78208923 419.36660767 C-147.99263406 432.44124696 -154.47717399 445.37553371 -160.96958923 458.31192017 C-162.15532697 460.678361 -163.34087468 463.04489706 -164.52622986 465.41152954 C-167.10026215 470.54990952 -169.67605395 475.68740259 -172.25354004 480.8240509 C-173.30628169 482.92339314 -174.35680329 485.02384828 -175.40708923 487.12442017 C-201.14708923 487.12442017 -226.88708923 487.12442017 -253.40708923 487.12442017 C-243.03305201 465.22367493 -243.03305201 465.22367493 -239.50474548 458.18692017 C-239.09727585 457.37102417 -238.68980621 456.55512817 -238.26998901 455.71450806 C-237.42514784 454.0241584 -236.57933948 452.33429178 -235.73252869 450.64492798 C-234.47066038 448.1265579 -233.21309739 445.60607083 -231.95591736 443.08535767 C-227.87805765 434.92666641 -223.73804952 426.80807656 -219.46568298 418.74942017 C-213.92775411 408.2996311 -208.66485699 397.7172217 -203.40708923 387.12442017 C-197.77899891 375.7855314 -192.10740774 364.48335711 -186.17417908 353.3006897 C-181.07742142 343.6632208 -176.25388431 333.88923683 -171.40708923 324.12442017 C-166.18005865 313.5935447 -160.95013463 303.07232038 -155.43833923 292.68692017 C-149.73076121 281.93104971 -144.32196185 271.02979714 -138.90708923 260.12442017 C-133.10327411 248.43572567 -127.26675786 236.77745588 -121.14866638 225.24966431 C-116.05932896 215.62980286 -111.24541834 205.87218048 -106.40708923 196.12442017 C-100.77899891 184.7855314 -95.10740774 173.48335711 -89.17417908 162.3006897 C-84.07742142 152.6632208 -79.25388431 142.88923683 -74.40708923 133.12442017 C-69.18005865 122.5935447 -63.95013463 112.07232038 -58.43833923 101.68692017 C-52.73076121 90.93104971 -47.32196185 80.02979714 -41.90708923 69.12442017 C-36.01533106 57.25861123 -30.08908838 45.42323873 -23.88293457 33.71820068 C-20.25432289 26.86732976 -16.7782405 19.94996273 -13.34458923 12.99942017 C-12.23051367 10.74592034 -11.11472921 8.49326425 -9.99693298 6.24160767 C-9.28331604 4.79697144 -9.28331604 4.79697144 -8.55528259 3.32315063 C-6.41264461 -0.77988949 -4.46791577 0.00736105 0 0 Z M33.59291077 53.12442017 C32.88497375 54.75178101 32.88497375 54.75178101 32.16273499 56.41201782 C19.21066175 86.16041053 5.77965221 115.59777274 -8.35630798 144.80410767 C-10.22973017 148.67666164 -12.08998104 152.55460285 -13.92662048 156.44473267 C-20.89748069 171.19200541 -28.19506796 185.7697188 -35.53208923 200.33755493 C-40.02565595 209.27311722 -44.43973074 218.23838164 -48.73130798 227.27285767 C-54.8721653 240.19316056 -61.29134439 252.97030153 -67.71958923 265.74942017 C-79.72171899 285.19788533 -79.72171899 285.19788533 -86.40708923 306.12442017 C-38.22708923 306.12442017 9.95291077 306.12442017 59.59291077 306.12442017 C58.87336271 295.5442908 58.87336271 295.5442908 57.85418701 285.01785278 C57.71555237 283.79454758 57.57691772 282.57124237 57.43408203 281.31086731 C57.28499893 280.02150772 57.13591583 278.73214813 56.98231506 277.40371704 C56.82090329 275.98865266 56.65976894 274.57355662 56.49888611 273.15843201 C56.15455343 270.13397588 55.80849973 267.10972368 55.46111107 264.08561707 C54.90585426 259.24998228 54.35588066 254.41375485 53.80673218 249.5774231 C52.34200006 236.68391076 50.87238283 223.79095734 49.39597255 210.89877683 C38.50766924 115.81860438 38.50766924 115.81860438 35.98744202 68.60488892 C35.69766469 63.41360673 35.23432509 58.28362234 34.59291077 53.12442017 C34.26291077 53.12442017 33.93291077 53.12442017 33.59291077 53.12442017 Z " fill="#FEFEFE" transform="translate(301.40708923339844,13.875579833984375)"/>
<path d="M0 0 C4.41322665 3.40205908 7.80863579 7.88060508 8.82421875 13.40625 C9.55093814 20.43120413 7.97124737 25.63215753 3.82421875 31.40625 C-1.08126481 35.58640914 -6.32908458 37.85446544 -12.85546875 37.74609375 C-18.16322353 36.96869532 -23.17062795 34.49838484 -26.88671875 30.62109375 C-31.21137085 24.73406733 -31.92247822 19.4946128 -31.17578125 12.40625 C-29.10106961 5.55377385 -25.02563999 1.65200093 -18.92578125 -1.90625 C-12.31569126 -3.5587725 -5.99795603 -3.40654704 0 0 Z " fill="#FFFFFF" transform="translate(473.17578125,67.59375)"/>
<path d="M0 0 C4.49593754 2.99452666 7.42589085 7.33626631 9.1171875 12.41015625 C9.8586025 19.25305206 9.20772371 24.75892315 5.1171875 30.41015625 C0.54545975 35.33259188 -4.06260245 37.47124173 -10.6953125 37.78515625 C-16.58587319 37.64490481 -21.03542607 35.98946813 -25.41796875 32.01953125 C-29.26825118 27.75391223 -30.67417114 23.66348295 -31.1953125 18.03515625 C-30.62077721 11.37054685 -29.02575582 7.09864432 -24.0078125 2.53515625 C-16.32050234 -3.60071495 -8.84161483 -4.2678383 0 0 Z " fill="#FFFFFF" transform="translate(44.8828125,333.58984375)"/>
<path d="M0 0 C5.0657875 2.65509476 8.31923169 6.6951338 11.15625 11.55859375 C12.52545784 17.03542511 12.56544811 22.29543587 10.65625 27.62109375 C7.19153 32.75843719 3.00762872 37.25135892 -3.15625 38.81640625 C-8.97200097 39.7655045 -13.98042511 39.23119068 -19.15625 36.30859375 C-24.86764935 31.36959317 -27.78163201 26.42939162 -28.46875 18.87109375 C-27.86759031 12.0178733 -24.91119807 7.174122 -20.15625 2.30859375 C-14.51340403 -1.82031793 -6.58303651 -2.11086497 0 0 Z " fill="#FFFFFF" transform="translate(491.15625,414.69140625)"/>
<path d="M0 0 C4.76373308 3.5160887 9.2214045 8.04239891 10.625 13.9375 C11.43250644 20.48587257 10.46524574 25.52469072 6.625 30.9375 C2.63826062 35.70678239 -1.60654134 37.98299229 -7.7578125 38.87109375 C-13.40651827 39.01441912 -18.15116513 37.84481863 -22.48828125 34.125 C-27.5753661 28.56396314 -29.89761209 23.85220458 -29.68359375 16.2734375 C-28.79639491 9.5576792 -25.1657797 5.24087673 -20.05859375 1.06640625 C-14.52690529 -2.64277696 -6.07707112 -1.91315202 0 0 Z " fill="#FFFFFF" transform="translate(85.375,84.0625)"/>
<path d="M0 0 C4.83499052 2.70759469 8.76166953 7.19372853 10.453125 12.515625 C11.57063569 18.68622749 11.10656366 23.22365814 8.0859375 28.67578125 C5.24744713 32.74196224 1.38037082 35.59116347 -3.1875 37.5 C-9.83624769 38.48079353 -15.05407719 37.90488773 -20.53515625 33.92578125 C-24.97882145 30.09141294 -27.7204719 26.09922989 -28.48046875 20.2421875 C-28.84887094 13.73042985 -27.54699317 9.39219932 -23.1875 4.5 C-16.37557798 -1.49210646 -8.53986174 -3.72797811 0 0 Z " fill="#EBEBEB" transform="translate(127.1875,415.5)"/>
<path d="M0 0 C5.69621015 2.5940995 8.91015366 6.16517414 12.05859375 11.5625 C13.57589247 17.63169486 13.82712632 23.1885537 10.55859375 28.6875 C7.21190992 33.36343008 3.36746585 36.77939852 -2.25390625 38.3125 C-8.69808998 39.12884573 -14.0064633 38.28115433 -19.25390625 34.3125 C-24.44994799 28.80017746 -26.65974559 24.1317473 -26.53125 16.46484375 C-25.84957016 11.17462414 -23.25128926 6.89716398 -19.25390625 3.4375 C-13.09035828 -0.92834648 -7.4275838 -2.26560615 0 0 Z " fill="#EBEBEB" transform="translate(192.25390625,287.6875)"/>
<path d="M0 0 C5.11911773 3.01248492 8.75627975 7.20410809 10.3828125 12.9609375 C11.20085077 18.61758513 10.82525633 23.62689291 7.6875 28.5 C2.74893079 33.90789328 -1.76700651 37.15126294 -9.125 37.875 C-14.69062496 37.69681615 -19.10010838 35.61161022 -23.11328125 31.78125 C-27.96047345 26.32092848 -28.78915707 21.91796742 -28.71875 14.6484375 C-27.96729235 8.82464071 -24.98708249 4.95502721 -20.7421875 1.05859375 C-14.74340095 -3.09998533 -6.53020925 -2.80223539 0 0 Z " fill="#EBEBEB" transform="translate(274.3125,109.5)"/>
<path d="M0 0 C5.6112043 3.34777292 9.8538298 7.63800731 11.64453125 14.0546875 C12.12492054 19.91543688 11.67467668 24.90875632 8.64453125 30.0546875 C4.76225225 34.38750258 0.48446582 37.58116956 -5.3828125 38.3046875 C-11.16737811 38.62110818 -15.69678441 37.57806221 -20.35546875 34.0546875 C-25.55151049 28.54236496 -27.76130809 23.8739348 -27.6328125 16.20703125 C-26.95113266 10.91681164 -24.35285176 6.63935148 -20.35546875 3.1796875 C-14.079989 -1.26544399 -7.47041462 -2.99807685 0 0 Z " fill="#EBEBEB" transform="translate(381.35546875,99.9453125)"/>
<path d="M0 0 C5.1158234 2.6984563 8.39816021 6.66227186 11.21484375 11.625 C12.87332737 18.10816323 12.48410664 23.66181348 9.16796875 29.5234375 C5.81005293 34.27012097 1.60745856 37.03175994 -4.09765625 38.3125 C-10.18077501 39.00115495 -15.01921309 37.63053909 -20.09765625 34.3125 C-24.67053752 29.6536982 -26.84842298 25.55253249 -27.34765625 19.0625 C-26.92532696 12.72756065 -25.50480892 8.2103589 -20.66015625 3.9375 C-14.50867276 -0.98919148 -7.6925057 -2.52119367 0 0 Z " fill="#EBEBEB" transform="translate(404.09765625,326.6875)"/>
</svg>
